<?xml version="1.0" encoding="UTF-8"?>
<svg id="_레이어_1" data-name="레이어_1" xmlns="http://www.w3.org/2000/svg" version="1.1" viewBox="0 0 176.423 200">
  <!-- Generator: Adobe Illustrator 29.3.1, SVG Export Plug-In . SVG Version: 2.1.0 Build 151)  -->
  <defs>
    <style>
      .st0 {
        fill: #040000;
      }
    </style>
  </defs>
  <path class="st0" d="M48.6016,2.7755c-3.6882-3.6957-9.7006-3.6957-13.3976,0L1.8703,36.1093c-2.4937,2.4937-2.4937,6.5336,0,9.0273,2.4912,2.4937,6.5361,2.4937,9.0273,0l24.6618-24.6609v173.1403c0,3.5261,2.8578,6.384,6.384,6.384s6.384-2.8578,6.384-6.384V20.5554l24.663,24.661c1.2469,1.2469,2.8803,1.8703,4.5137,1.8703s3.2668-.6234,4.5137-1.8703c2.4937-2.4937,2.4937-6.5361,0-9.0273L48.6016,2.7755Z"/>
  <path class="st0" d="M174.5527,154.8609c-2.4937-2.4937-6.5336-2.4937-9.0273,0l-24.663,24.663V6.384c0-3.5261-2.8578-6.384-6.384-6.384s-6.384,2.8578-6.384,6.384v173.0597l-24.6605-24.6626c-2.4937-2.4937-6.5336-2.4937-9.0273,0-2.4937,2.4912-2.4937,6.5336,0,9.0273l33.4135,33.416c1.8479,1.8479,4.2718,2.7705,6.6982,2.7705s4.8553-.9227,6.7007-2.7705l33.3337-33.3362c2.4937-2.4937,2.4937-6.5361,0-9.0273Z"/>
</svg>