<?xml version="1.0" encoding="UTF-8"?>
<svg id="_레이어_1" data-name="레이어_1" xmlns="http://www.w3.org/2000/svg" version="1.1" viewBox="0 0 200 189.5">
  <!-- Generator: Adobe Illustrator 29.2.0, SVG Export Plug-In . SVG Version: 2.1.0 Build 108)  -->
  <defs>
    <style>
      .st0 {
        fill: #000;
      }
    </style>
  </defs>
  <path class="st0" d="M188.1,35.8l-.2-2.3h-45.1C139.1,14.2,121,0,100,0s-39.1,14.2-42.9,33.5H12.1L0,189.5h200l-11.9-153.8ZM67.8,33.5c3.6-13.5,17-23.4,32.2-23.4s28.5,9.9,32.2,23.4h-64.4ZM56.4,47.3c-5,2.1-8.3,6.9-8.3,12.4s6.1,13.5,13.5,13.5,13.5-6.1,13.5-13.5-3.3-10.3-8.3-12.4v-3.7h66.4v3.7c-4.9,2.1-8.3,6.9-8.3,12.4s6.1,13.5,13.5,13.5,13.5-6.1,13.5-13.5-3.3-10.4-8.3-12.4v-3.7h34.9l10.1,135.8H11.4L21.5,43.6h34.9v3.7Z"/>
</svg>