<?xml version="1.0" encoding="UTF-8"?>
<svg id="_레이어_1" data-name="레이어_1" xmlns="http://www.w3.org/2000/svg" version="1.1" viewBox="0 0 186 186">
  <!-- Generator: Adobe Illustrator 29.2.0, SVG Export Plug-In . SVG Version: 2.1.0 Build 108)  -->
  <defs>
    <style>
      .st0 {
        fill: rgba(0,0,0,0.3);
      }

      .st1 {
        fill: #fff;
      }
    </style>
  </defs>
  <!-- <path class="st0" d="M93,6c48,0,87,39,87,87s-39,87-87,87S6,141,6,93,45,6,93,6M93,0C41.6,0,0,41.6,0,93s41.6,93,93,93,93-41.6,93-93S144.4,0,93,0h0Z"/> -->
  <circle class="st0" cx="93" cy="93" r="93"></circle>
  <path class="st1" d="M78.2,125.5c-.9,0-1.8-.3-2.5-1-1.4-1.4-1.4-3.6,0-4.9l26.2-26.2-26.8-26.8c-1.4-1.4-1.4-3.6,0-5,1.4-1.4,3.6-1.4,5,0l31.8,31.8-31.2,31.2c-.7.7-1.6,1-2.5,1Z"/>
</svg>