<?xml version="1.0" encoding="UTF-8"?>
<svg id="_레이어_1" data-name="레이어_1" xmlns="http://www.w3.org/2000/svg" version="1.1" viewBox="0 0 200 140.9983">
  <!-- Generator: Adobe Illustrator 29.3.1, SVG Export Plug-In . SVG Version: 2.1.0 Build 151)  -->
  <path d="M62.1014,11c9.9613,0,18.6104,7.0733,20.5655,16.8186l.8346,4.1602-.8347,4.1603c-1.9552,9.7452-10.6042,16.8184-20.5655,16.8184s-18.6103-7.0732-20.5654-16.8184l-.8347-4.1603.8346-4.1602c1.9552-9.7453,10.6042-16.8186,20.5655-16.8186M62.1014,0C46.6054,0,33.6864,11.0228,30.7508,25.6548H0v12.6479h30.7509c2.9356,14.6318,15.8546,25.6546,31.3505,25.6546s28.415-11.0227,31.3506-25.6546h106.548v-12.6479h-106.548C90.5165,11.0228,77.5975,0,62.1014,0h0Z"/>
  <path d="M137.8985,88.041c9.9612,0,18.6102,7.0731,20.5654,16.8182l.8347,4.1602-.8346,4.1602c-1.9551,9.7454-10.6042,16.8187-20.5655,16.8187s-18.6104-7.0733-20.5655-16.8187l-.8346-4.1605.8346-4.16c1.9553-9.7452,10.6043-16.8183,20.5655-16.8183M137.8985,77.041c-15.4958,0-28.4148,11.0226-31.3505,25.6544H0v12.6479h106.548c2.9354,14.6322,15.8544,25.6551,31.3506,25.6551s28.4151-11.0229,31.3506-25.6551h30.7509v-12.6479h-30.751c-2.9356-14.6317-15.8546-25.6544-31.3505-25.6544h0Z"/>
</svg>