<?xml version="1.0" encoding="UTF-8"?>
<svg id="_레이어_1" data-name="레이어_1" xmlns="http://www.w3.org/2000/svg" version="1.1" viewBox="0 0 200 200">
  <!-- Generator: Adobe Illustrator 29.3.1, SVG Export Plug-In . SVG Version: 2.1.0 Build 151)  -->
  <defs>
    <style>
      .st0 {
        fill: #a8a8a8;
      }
    </style>
  </defs>
  <path class="st0" d="M175.5965,20c2.4281,0,4.4035,1.9754,4.4035,4.4035v151.193c0,2.4281-1.9754,4.4035-4.4035,4.4035H24.4035c-2.4281,0-4.4035-1.9754-4.4035-4.4035V24.4035c0-2.4281,1.9754-4.4035,4.4035-4.4035h151.193M175.5965,0H24.4035C10.9258,0,0,10.9258,0,24.4035v151.193c0,13.4777,10.9258,24.4035,24.4035,24.4035h151.193c13.4777,0,24.4035-10.9258,24.4035-24.4035V24.4035c0-13.4777-10.9258-24.4035-24.4035-24.4035h0Z"/>
</svg>