<?xml version="1.0" encoding="UTF-8"?>
<svg id="_레이어_1" xmlns="http://www.w3.org/2000/svg" version="1.1" viewBox="0 0 200 188">
  <!-- Generator: Adobe Illustrator 29.2.0, SVG Export Plug-In . SVG Version: 2.1.0 Build 108)  -->
  <defs>
    <style>
      .st0 {
        fill: #fc1939;
      }
    </style>
  </defs>
  <path class="st0" d="M100.1,187.8l-8.3-8.4c-1.8-1.7-3.5-3.4-5.4-5-9.2-8.2-18.5-16.4-27.8-24.6l-13.9-12.3c-7.7-6.8-17.3-15.3-25.3-24.9-8.2-9.8-13.6-20-16.4-31.1-1.5-5.8-2.4-12.1-2.8-20-.5-8.6.3-16.2,2.4-23.1C10.7,12.2,36.5-3.5,64.2,1c13.3,2.2,24.8,8.8,34.3,19.9.6.6,1.1,1.3,1.6,2,.5-.7,1.1-1.3,1.6-2C111.2,9.8,122.8,3.1,135.9,1c27.6-4.5,53.5,11.2,61.5,37.4h0c2.1,6.9,2.9,14.4,2.4,23.1-.5,7.9-1.3,14.3-2.8,20-2.8,11.2-8.2,21.3-16.4,31.1-8,9.6-17.6,18.1-25.3,24.9l-13.2,11.7c-9.5,8.4-19,16.8-28.4,25.2-1.8,1.6-3.6,3.3-5.4,5l-3.4,3.4-4.9,5h0Z"/>
</svg>