<?xml version="1.0" encoding="UTF-8"?>
<svg id="_레이어_1" data-name="레이어_1" xmlns="http://www.w3.org/2000/svg" version="1.1" viewBox="0 0 200 188">
  <!-- Generator: Adobe Illustrator 29.2.0, SVG Export Plug-In . SVG Version: 2.1.0 Build 108)  -->
  <defs>
    <style>
      .st0 {
        fill: #fff;
      }
    </style>
  </defs>
  <path class="st0" d="M100,187.6l-8.3-8.4c-1.8-1.7-3.5-3.4-5.4-5-9.2-8.2-18.5-16.4-27.8-24.6l-13.9-12.3c-7.7-6.8-17.3-15.3-25.3-24.9-8.2-9.8-13.6-20-16.4-31.1-1.5-5.8-2.4-12.1-2.8-20-.5-8.6.3-16.2,2.4-23.1C10.6,12,36.4-3.7,64.1.8c13.3,2.2,24.8,8.8,34.3,19.9.6.6,1.1,1.3,1.6,2,.5-.7,1.1-1.3,1.6-2C111.1,9.6,122.7,2.9,135.9.8c27.6-4.5,53.5,11.2,61.5,37.4h0c2.1,6.9,2.9,14.4,2.4,23.1-.5,7.9-1.3,14.3-2.8,20-2.8,11.2-8.2,21.3-16.4,31.1-8,9.6-17.6,18.1-25.3,24.9l-13.2,11.7c-9.5,8.4-19,16.8-28.4,25.2-1.8,1.6-3.6,3.3-5.4,5l-3.4,3.4-4.9,5ZM54.7,13.6c-18,0-33.9,11.2-39.2,28.5-1.7,5.4-2.2,11.2-1.8,18.3.4,7,1.2,12.6,2.4,17.5,2.3,9.1,6.8,17.5,13.6,25.7,6.8,8.2,14.5,15.1,23.9,23.4l13.9,12.3c9.3,8.2,18.5,16.4,27.8,24.6,1.6,1.4,3.1,2.9,4.7,4.3,1.5-1.5,3.1-2.9,4.7-4.3,9.5-8.4,19-16.8,28.5-25.2l13.2-11.7c9.4-8.3,17.1-15.3,23.9-23.4,6.9-8.2,11.3-16.6,13.6-25.7,1.2-4.9,2-10.5,2.4-17.5.4-7.1-.2-12.9-1.8-18.3-6-19.6-25.5-31.3-46.3-28-10.2,1.7-18.8,6.7-26.2,15.3-1.5,1.7-2.9,3.6-4.3,5.6-.7,1-1.4,1.9-2.1,2.9l-5.4,7.1-5.4-7.1c-.7-1-1.4-1.9-2.1-2.9-1.5-2-2.9-3.9-4.3-5.6-7.5-8.7-16.1-13.7-26.2-15.3-2.4-.4-4.8-.6-7.1-.6Z"/>
</svg>