<?xml version="1.0" encoding="UTF-8"?>
<svg id="_레이어_1" data-name="레이어_1" xmlns="http://www.w3.org/2000/svg" version="1.1" viewBox="0 0 200 219">
  <!-- Generator: Adobe Illustrator 29.2.1, SVG Export Plug-In . SVG Version: 2.1.0 Build 116)  -->
  <defs>
    <style>
      .st0 {
        fill: #fff;
      }
    </style>
  </defs>
  <path class="st0" d="M190.6,109.4c-5.2,0-9.4,4.2-9.4,9.4,0,44.7-36.4,81.1-81.1,81.1S18.9,163.5,18.9,118.8,55.3,37.7,100,37.7s24,2.7,34.9,7.9c3.5,1.7,6.9,3.7,10.2,5.8l-28.4,2.8c-5.2.5-9,5.1-8.5,10.3.5,4.9,4.6,8.5,9.4,8.5s.6,0,.9,0l43.6-4.3c8.3-.8,14.5-8.3,13.7-16.6l-4.3-43.6c-.5-5.2-5.1-9-10.3-8.5-5.2.5-9,5.1-8.5,10.3l2.5,25.1c-3.9-2.6-7.9-4.9-12.1-6.9-13.5-6.5-28-9.7-43.1-9.7C44.9,18.8,0,63.7,0,118.8s44.9,100,100,100,100-44.9,100-100-4.2-9.4-9.4-9.4Z"/>
</svg>