<?xml version="1.0" encoding="UTF-8"?>
<svg id="_레이어_1" data-name="레이어_1" xmlns="http://www.w3.org/2000/svg" version="1.1" viewBox="0 0 200 159.1514">
  <!-- Generator: Adobe Illustrator 29.3.1, SVG Export Plug-In . SVG Version: 2.1.0 Build 151)  -->
  <defs>
    <style>
      .st0 {
        fill: #676767;
      }
    </style>
  </defs>
  <path class="st0" d="M194.1916,132.4704l-85.0745-65.8248c-1.0939-.8463-2.2906-1.4748-3.5254-1.9761v-12.0321c13.0895-3.1561,21.7376-15.4694,20.2194-29.0037-1.353-12.0706-11.0763-21.9205-23.1196-23.4212-8.3263-1.0374-16.4663,1.7574-22.3407,7.6714-2.5732,2.5908-4.5566,5.6212-5.8938,9.005-1.2783,3.237.3086,6.8977,3.5456,8.1769,3.237,1.2756,6.8977-.3103,8.1769-3.5456.7042-1.7847,1.7521-3.3847,3.1139-4.7553,3.1034-3.1218,7.4217-4.5891,11.8394-4.0458,6.3307.7886,11.442,5.9694,12.1541,12.3194.8211,7.3206-3.9544,13.9616-11.1071,15.4491-5.3258,1.1068-9.1914,5.7997-9.1914,11.1589v13.6364c-.7296.3893-1.4342.8435-2.1055,1.3627L5.8075,132.4704c-5.1175,3.9605-7.0727,10.4758-4.9803,16.5999s7.6265,10.0811,14.0979,10.0811h170.1498c6.4714,0,12.0055-3.957,14.0979-10.0811s.1371-12.6394-4.9812-16.5999ZM187.2464,144.9955c-.1978.5794-.7438,1.5526-2.1715,1.5526H14.9251c-1.4277,0-1.9737-.9732-2.1715-1.5526-.1978-.5802-.3622-1.6836.7666-2.5574l85.0753-65.8248h.0009c.4132-.32.9082-.48,1.4031-.48.4958,0,.9908.16,1.4049.48l85.0745,65.8248c1.1297.8739.9653,1.9772.7675,2.5574Z"/>
</svg>